<mxfile host="app.diagrams.net" modified="2023-02-12T08:23:41.740Z" agent="5.0 (Windows NT 10.0; Win64; x64) AppleWebKit/537.36 (KHTML, like Gecko) Chrome/96.0.4664.45 Safari/537.36" etag="Jc5x9DNbvQTOyp8OKBwi" version="20.8.20" type="github" pages="4">
  <diagram name="第 1 页" id="ycf7j_vguIzHzn9UkBiQ">
    <mxGraphModel dx="1687" dy="936" grid="0" gridSize="10" guides="1" tooltips="1" connect="1" arrows="1" fold="1" page="1" pageScale="1" pageWidth="1654" pageHeight="2336" math="0" shadow="0">
      <root>
        <mxCell id="0" />
        <mxCell id="1" parent="0" />
        <mxCell id="6bAm6665xSB6OLJB_4wi-1" value="&lt;h1&gt;&lt;font style=&quot;font-size: 32px;&quot;&gt;Parametric Modeling and Analysis System for Bridge Crane Structure&lt;/font&gt;&lt;/h1&gt;" style="rounded=1;whiteSpace=wrap;html=1;labelBackgroundColor=none;strokeWidth=2;fillColor=#FAE5C7;strokeColor=#0F8B8D;fontColor=#143642;" parent="1" vertex="1">
          <mxGeometry x="287" y="263" width="1080" height="100" as="geometry" />
        </mxCell>
        <mxCell id="6bAm6665xSB6OLJB_4wi-2" value="&lt;h2&gt;&lt;font style=&quot;font-size: 28px;&quot;&gt;Information interaction module&lt;/font&gt;&lt;/h2&gt;" style="rounded=0;whiteSpace=wrap;html=1;fontFamily=Verdana;fontSize=26;labelBackgroundColor=none;strokeWidth=2;fillColor=#FAE5C7;strokeColor=#0F8B8D;fontColor=#143642;" parent="1" vertex="1">
          <mxGeometry x="307" y="443" width="240" height="200" as="geometry" />
        </mxCell>
        <mxCell id="6bAm6665xSB6OLJB_4wi-3" value="&lt;h2&gt;&lt;font style=&quot;font-size: 28px;&quot;&gt;Data management module&lt;/font&gt;&lt;/h2&gt;" style="rounded=0;whiteSpace=wrap;html=1;fontFamily=Verdana;fontSize=26;labelBackgroundColor=none;strokeWidth=2;fillColor=#FAE5C7;strokeColor=#0F8B8D;fontColor=#143642;" parent="1" vertex="1">
          <mxGeometry x="707" y="443" width="240" height="200" as="geometry" />
        </mxCell>
        <mxCell id="6bAm6665xSB6OLJB_4wi-4" value="&lt;h2&gt;&lt;font style=&quot;font-size: 28px;&quot;&gt;Calculation processing module&lt;/font&gt;&lt;/h2&gt;" style="rounded=0;whiteSpace=wrap;html=1;fontFamily=Verdana;fontSize=26;labelBackgroundColor=none;strokeWidth=2;fillColor=#FAE5C7;strokeColor=#0F8B8D;fontColor=#143642;" parent="1" vertex="1">
          <mxGeometry x="1107" y="443" width="240" height="200" as="geometry" />
        </mxCell>
        <mxCell id="6bAm6665xSB6OLJB_4wi-5" value="&lt;p&gt;&lt;font style=&quot;font-size: 26px;&quot;&gt;Input Commands&amp;nbsp; &amp;nbsp; &amp;nbsp;and&amp;nbsp; &amp;nbsp; Data&lt;/font&gt;&lt;/p&gt;" style="rounded=0;whiteSpace=wrap;html=1;fontFamily=Verdana;fontSize=26;labelBackgroundColor=none;strokeWidth=2;fillColor=#FAE5C7;strokeColor=#0F8B8D;fontColor=#143642;" parent="1" vertex="1">
          <mxGeometry x="247" y="723" width="170" height="190" as="geometry" />
        </mxCell>
        <mxCell id="6bAm6665xSB6OLJB_4wi-7" value="&lt;p&gt;&lt;font style=&quot;font-size: 26px;&quot;&gt;Display Information and Feedback&lt;/font&gt;&lt;/p&gt;" style="rounded=0;whiteSpace=wrap;html=1;fontFamily=Verdana;fontSize=26;labelBackgroundColor=none;strokeWidth=2;fillColor=#FAE5C7;strokeColor=#0F8B8D;fontColor=#143642;" parent="1" vertex="1">
          <mxGeometry x="433" y="723" width="170" height="190" as="geometry" />
        </mxCell>
        <mxCell id="6bAm6665xSB6OLJB_4wi-8" value="&lt;p&gt;&lt;font style=&quot;font-size: 26px;&quot;&gt;Manage Project Information&lt;/font&gt;&lt;/p&gt;" style="rounded=0;whiteSpace=wrap;html=1;fontFamily=Verdana;fontSize=26;labelBackgroundColor=none;strokeWidth=2;fillColor=#FAE5C7;strokeColor=#0F8B8D;fontColor=#143642;" parent="1" vertex="1">
          <mxGeometry x="837" y="723" width="170" height="190" as="geometry" />
        </mxCell>
        <mxCell id="6bAm6665xSB6OLJB_4wi-9" value="&lt;p&gt;Manage Crane Parameters&lt;br&gt;&lt;/p&gt;" style="rounded=0;whiteSpace=wrap;html=1;fontFamily=Verdana;fontSize=26;labelBackgroundColor=none;strokeWidth=2;fillColor=#FAE5C7;strokeColor=#0F8B8D;fontColor=#143642;" parent="1" vertex="1">
          <mxGeometry x="637" y="723" width="170" height="190" as="geometry" />
        </mxCell>
        <mxCell id="6bAm6665xSB6OLJB_4wi-10" value="&lt;p&gt;Parametric Modeling&lt;br&gt;&lt;/p&gt;" style="rounded=0;whiteSpace=wrap;html=1;fontFamily=Verdana;fontSize=26;labelBackgroundColor=none;strokeWidth=2;fillColor=#FAE5C7;strokeColor=#0F8B8D;fontColor=#143642;" parent="1" vertex="1">
          <mxGeometry x="1047" y="723" width="170" height="190" as="geometry" />
        </mxCell>
        <mxCell id="6bAm6665xSB6OLJB_4wi-11" value="&lt;p&gt;Finite Element Analysis&lt;br&gt;&lt;/p&gt;" style="rounded=0;whiteSpace=wrap;html=1;fontFamily=Verdana;fontSize=26;labelBackgroundColor=none;strokeWidth=2;fillColor=#FAE5C7;strokeColor=#0F8B8D;fontColor=#143642;" parent="1" vertex="1">
          <mxGeometry x="1237" y="723" width="170" height="190" as="geometry" />
        </mxCell>
        <mxCell id="6bAm6665xSB6OLJB_4wi-15" value="" style="endArrow=none;html=1;rounded=0;fontFamily=Helvetica;fontSize=28;entryX=0.5;entryY=1;entryDx=0;entryDy=0;exitX=0.5;exitY=0;exitDx=0;exitDy=0;labelBackgroundColor=none;fontColor=default;strokeWidth=2;strokeColor=#A8201A;" parent="1" source="6bAm6665xSB6OLJB_4wi-7" target="6bAm6665xSB6OLJB_4wi-2" edge="1">
          <mxGeometry width="50" height="50" relative="1" as="geometry">
            <mxPoint x="1017" y="593" as="sourcePoint" />
            <mxPoint x="1067" y="543" as="targetPoint" />
            <Array as="points">
              <mxPoint x="517" y="683" />
              <mxPoint x="427" y="683" />
            </Array>
          </mxGeometry>
        </mxCell>
        <mxCell id="6bAm6665xSB6OLJB_4wi-16" value="" style="endArrow=none;html=1;rounded=0;fontFamily=Helvetica;fontSize=28;entryX=0.5;entryY=1;entryDx=0;entryDy=0;labelBackgroundColor=none;fontColor=default;strokeWidth=2;strokeColor=#A8201A;" parent="1" source="6bAm6665xSB6OLJB_4wi-3" target="6bAm6665xSB6OLJB_4wi-1" edge="1">
          <mxGeometry width="50" height="50" relative="1" as="geometry">
            <mxPoint x="1027" y="603" as="sourcePoint" />
            <mxPoint x="1077" y="553" as="targetPoint" />
          </mxGeometry>
        </mxCell>
        <mxCell id="6bAm6665xSB6OLJB_4wi-17" value="" style="endArrow=none;html=1;rounded=0;fontFamily=Helvetica;fontSize=28;entryX=0.5;entryY=1;entryDx=0;entryDy=0;exitX=0.5;exitY=0;exitDx=0;exitDy=0;labelBackgroundColor=none;fontColor=default;strokeWidth=2;strokeColor=#A8201A;" parent="1" source="6bAm6665xSB6OLJB_4wi-4" target="6bAm6665xSB6OLJB_4wi-1" edge="1">
          <mxGeometry width="50" height="50" relative="1" as="geometry">
            <mxPoint x="1037" y="613" as="sourcePoint" />
            <mxPoint x="1087" y="563" as="targetPoint" />
            <Array as="points">
              <mxPoint x="1227" y="403" />
              <mxPoint x="827" y="403" />
            </Array>
          </mxGeometry>
        </mxCell>
        <mxCell id="6bAm6665xSB6OLJB_4wi-18" value="" style="endArrow=none;html=1;rounded=0;fontFamily=Helvetica;fontSize=28;entryX=0.5;entryY=1;entryDx=0;entryDy=0;exitX=0.5;exitY=0;exitDx=0;exitDy=0;labelBackgroundColor=none;fontColor=default;strokeWidth=2;strokeColor=#A8201A;" parent="1" source="6bAm6665xSB6OLJB_4wi-2" target="6bAm6665xSB6OLJB_4wi-1" edge="1">
          <mxGeometry width="50" height="50" relative="1" as="geometry">
            <mxPoint x="1047" y="623" as="sourcePoint" />
            <mxPoint x="1097" y="573" as="targetPoint" />
            <Array as="points">
              <mxPoint x="427" y="403" />
              <mxPoint x="827" y="403" />
            </Array>
          </mxGeometry>
        </mxCell>
        <mxCell id="6bAm6665xSB6OLJB_4wi-19" value="" style="endArrow=none;html=1;rounded=0;fontFamily=Helvetica;fontSize=28;entryX=0.5;entryY=1;entryDx=0;entryDy=0;exitX=0.5;exitY=0;exitDx=0;exitDy=0;labelBackgroundColor=none;fontColor=default;strokeWidth=2;strokeColor=#A8201A;" parent="1" source="6bAm6665xSB6OLJB_4wi-9" target="6bAm6665xSB6OLJB_4wi-3" edge="1">
          <mxGeometry width="50" height="50" relative="1" as="geometry">
            <mxPoint x="1057" y="633" as="sourcePoint" />
            <mxPoint x="1107" y="583" as="targetPoint" />
            <Array as="points">
              <mxPoint x="722" y="683" />
              <mxPoint x="827" y="683" />
            </Array>
          </mxGeometry>
        </mxCell>
        <mxCell id="6bAm6665xSB6OLJB_4wi-20" value="" style="endArrow=none;html=1;rounded=0;fontFamily=Helvetica;fontSize=28;entryX=0.5;entryY=1;entryDx=0;entryDy=0;exitX=0.5;exitY=0;exitDx=0;exitDy=0;labelBackgroundColor=none;fontColor=default;strokeWidth=2;strokeColor=#A8201A;" parent="1" source="6bAm6665xSB6OLJB_4wi-8" target="6bAm6665xSB6OLJB_4wi-3" edge="1">
          <mxGeometry width="50" height="50" relative="1" as="geometry">
            <mxPoint x="1067" y="643" as="sourcePoint" />
            <mxPoint x="1117" y="593" as="targetPoint" />
            <Array as="points">
              <mxPoint x="922" y="683" />
              <mxPoint x="827" y="683" />
            </Array>
          </mxGeometry>
        </mxCell>
        <mxCell id="6bAm6665xSB6OLJB_4wi-21" value="" style="endArrow=none;html=1;rounded=0;fontFamily=Helvetica;fontSize=28;entryX=0.5;entryY=1;entryDx=0;entryDy=0;exitX=0.5;exitY=0;exitDx=0;exitDy=0;labelBackgroundColor=none;fontColor=default;strokeWidth=2;strokeColor=#A8201A;" parent="1" source="6bAm6665xSB6OLJB_4wi-10" target="6bAm6665xSB6OLJB_4wi-4" edge="1">
          <mxGeometry width="50" height="50" relative="1" as="geometry">
            <mxPoint x="1077" y="653" as="sourcePoint" />
            <mxPoint x="1127" y="603" as="targetPoint" />
            <Array as="points">
              <mxPoint x="1132" y="683" />
              <mxPoint x="1227" y="683" />
            </Array>
          </mxGeometry>
        </mxCell>
        <mxCell id="6bAm6665xSB6OLJB_4wi-22" value="" style="endArrow=none;html=1;rounded=0;fontFamily=Helvetica;fontSize=28;entryX=0.5;entryY=1;entryDx=0;entryDy=0;exitX=0.5;exitY=0;exitDx=0;exitDy=0;labelBackgroundColor=none;fontColor=default;strokeWidth=2;strokeColor=#A8201A;" parent="1" source="6bAm6665xSB6OLJB_4wi-11" target="6bAm6665xSB6OLJB_4wi-4" edge="1">
          <mxGeometry width="50" height="50" relative="1" as="geometry">
            <mxPoint x="1087" y="663" as="sourcePoint" />
            <mxPoint x="1137" y="613" as="targetPoint" />
            <Array as="points">
              <mxPoint x="1322" y="683" />
              <mxPoint x="1227" y="683" />
            </Array>
          </mxGeometry>
        </mxCell>
        <mxCell id="6bAm6665xSB6OLJB_4wi-23" value="" style="endArrow=none;html=1;rounded=0;fontFamily=Helvetica;fontSize=28;entryX=0.5;entryY=1;entryDx=0;entryDy=0;exitX=0.5;exitY=0;exitDx=0;exitDy=0;labelBackgroundColor=none;fontColor=default;strokeWidth=2;strokeColor=#A8201A;" parent="1" source="6bAm6665xSB6OLJB_4wi-5" target="6bAm6665xSB6OLJB_4wi-2" edge="1">
          <mxGeometry width="50" height="50" relative="1" as="geometry">
            <mxPoint x="1097" y="673" as="sourcePoint" />
            <mxPoint x="1147" y="623" as="targetPoint" />
            <Array as="points">
              <mxPoint x="332" y="683" />
              <mxPoint x="427" y="683" />
            </Array>
          </mxGeometry>
        </mxCell>
      </root>
    </mxGraphModel>
  </diagram>
  <diagram id="cCQWgMtyQ9xVLm-9CHRU" name="第 2 页">
    <mxGraphModel dx="1247" dy="692" grid="1" gridSize="10" guides="1" tooltips="1" connect="1" arrows="1" fold="1" page="1" pageScale="1" pageWidth="1654" pageHeight="2336" math="0" shadow="0">
      <root>
        <mxCell id="0" />
        <mxCell id="1" parent="0" />
        <mxCell id="rpjM5rqR6dDSmTj9Ufwr-1" value="&lt;h1&gt;&lt;font style=&quot;font-size: 36px;&quot;&gt;Project&lt;/font&gt;&lt;/h1&gt;" style="rounded=0;whiteSpace=wrap;html=1;strokeWidth=2;labelBackgroundColor=none;fillColor=#FAE5C7;strokeColor=#0F8B8D;fontColor=#143642;" parent="1" vertex="1">
          <mxGeometry x="360" y="450" width="150" height="110" as="geometry" />
        </mxCell>
        <mxCell id="rpjM5rqR6dDSmTj9Ufwr-2" value="Weight&amp;nbsp;" style="ellipse;whiteSpace=wrap;html=1;fontFamily=Helvetica;fontSize=24;labelBackgroundColor=none;fillColor=#FAE5C7;strokeColor=#0F8B8D;fontColor=#143642;" parent="1" vertex="1">
          <mxGeometry x="880" y="710" width="180" height="50" as="geometry" />
        </mxCell>
        <mxCell id="rpjM5rqR6dDSmTj9Ufwr-3" value="&lt;font style=&quot;font-size: 24px;&quot;&gt;Device Name&lt;/font&gt;" style="ellipse;whiteSpace=wrap;html=1;fontFamily=Helvetica;fontSize=28;labelBackgroundColor=none;fillColor=#FAE5C7;strokeColor=#0F8B8D;fontColor=#143642;" parent="1" vertex="1">
          <mxGeometry x="580" y="520" width="180" height="50" as="geometry" />
        </mxCell>
        <mxCell id="rpjM5rqR6dDSmTj9Ufwr-4" value="&lt;h2&gt;&lt;font style=&quot;font-size: 32px;&quot;&gt;Crane Parameters&lt;/font&gt;&lt;/h2&gt;" style="rounded=0;whiteSpace=wrap;html=1;labelBackgroundColor=none;fillColor=#FAE5C7;strokeColor=#0F8B8D;fontColor=#143642;" parent="1" vertex="1">
          <mxGeometry x="620" y="320" width="220" height="80" as="geometry" />
        </mxCell>
        <mxCell id="rpjM5rqR6dDSmTj9Ufwr-5" value="&lt;h2&gt;&lt;font style=&quot;font-size: 32px;&quot;&gt;Load and Constraint Parameters&lt;/font&gt;&lt;/h2&gt;" style="rounded=0;whiteSpace=wrap;html=1;labelBackgroundColor=none;fillColor=#FAE5C7;strokeColor=#0F8B8D;fontColor=#143642;" parent="1" vertex="1">
          <mxGeometry x="620" y="600" width="220" height="120" as="geometry" />
        </mxCell>
        <mxCell id="iSw2Bme7cuxjauIEPzNs-1" value="&lt;p style=&quot;font-size: 28px;&quot;&gt;&lt;font style=&quot;font-size: 28px;&quot;&gt;Crane Type&lt;/font&gt;&lt;/p&gt;" style="rounded=0;whiteSpace=wrap;html=1;fontFamily=Verdana;fontSize=28;strokeWidth=2;labelBackgroundColor=none;fillColor=#FAE5C7;strokeColor=#0F8B8D;fontColor=#143642;" parent="1" vertex="1">
          <mxGeometry x="920" y="200" width="170" height="80" as="geometry" />
        </mxCell>
        <mxCell id="iSw2Bme7cuxjauIEPzNs-2" value="&lt;p style=&quot;font-size: 28px;&quot;&gt;&lt;font style=&quot;font-size: 28px;&quot;&gt;Integral Parameters&lt;/font&gt;&lt;/p&gt;" style="rounded=0;whiteSpace=wrap;html=1;fontFamily=Verdana;fontSize=28;labelBackgroundColor=none;fillColor=#FAE5C7;strokeColor=#0F8B8D;fontColor=#143642;" parent="1" vertex="1">
          <mxGeometry x="920" y="320" width="170" height="80" as="geometry" />
        </mxCell>
        <mxCell id="Fw-wr2e0vy1Fs69fPaS9-1" value="&lt;p style=&quot;font-size: 28px;&quot;&gt;&lt;font style=&quot;font-size: 28px;&quot;&gt;Structure Parameters&lt;/font&gt;&lt;br style=&quot;font-size: 28px;&quot;&gt;&lt;/p&gt;" style="rounded=0;whiteSpace=wrap;html=1;fontFamily=Verdana;fontSize=28;labelBackgroundColor=none;fillColor=#FAE5C7;strokeColor=#0F8B8D;fontColor=#143642;" parent="1" vertex="1">
          <mxGeometry x="920" y="440" width="170" height="80" as="geometry" />
        </mxCell>
        <mxCell id="Fw-wr2e0vy1Fs69fPaS9-3" value="Primary Beam" style="ellipse;whiteSpace=wrap;html=1;fontFamily=Helvetica;fontSize=24;labelBackgroundColor=none;fillColor=#FAE5C7;strokeColor=#0F8B8D;fontColor=#143642;" parent="1" vertex="1">
          <mxGeometry x="1130" y="410" width="180" height="50" as="geometry" />
        </mxCell>
        <mxCell id="Fw-wr2e0vy1Fs69fPaS9-5" value="Item Number" style="ellipse;whiteSpace=wrap;html=1;fontFamily=Helvetica;fontSize=24;labelBackgroundColor=none;fillColor=#FAE5C7;strokeColor=#0F8B8D;fontColor=#143642;" parent="1" vertex="1">
          <mxGeometry x="580" y="440" width="180" height="50" as="geometry" />
        </mxCell>
        <mxCell id="Fw-wr2e0vy1Fs69fPaS9-6" value="Trolley Position" style="ellipse;whiteSpace=wrap;html=1;fontFamily=Helvetica;fontSize=24;labelBackgroundColor=none;fillColor=#FAE5C7;strokeColor=#0F8B8D;fontColor=#143642;" parent="1" vertex="1">
          <mxGeometry x="870" y="635" width="200" height="50" as="geometry" />
        </mxCell>
        <mxCell id="I4TDb45q7dqxqLJ3P50U-1" value="Load" style="ellipse;whiteSpace=wrap;html=1;fontFamily=Helvetica;fontSize=24;labelBackgroundColor=none;fillColor=#FAE5C7;strokeColor=#0F8B8D;fontColor=#143642;" parent="1" vertex="1">
          <mxGeometry x="880" y="560" width="180" height="50" as="geometry" />
        </mxCell>
        <mxCell id="I4TDb45q7dqxqLJ3P50U-14" value="End Beam" style="ellipse;whiteSpace=wrap;html=1;fontFamily=Helvetica;fontSize=24;labelBackgroundColor=none;fillColor=#FAE5C7;strokeColor=#0F8B8D;fontColor=#143642;" parent="1" vertex="1">
          <mxGeometry x="1130" y="500" width="180" height="50" as="geometry" />
        </mxCell>
        <mxCell id="Rwy301wZzgn80h3kD4oo-1" value="" style="endArrow=none;html=1;rounded=0;entryX=1;entryY=0.25;entryDx=0;entryDy=0;exitX=0;exitY=0.5;exitDx=0;exitDy=0;labelBackgroundColor=none;strokeColor=#A8201A;fontColor=default;" parent="1" source="Fw-wr2e0vy1Fs69fPaS9-5" target="rpjM5rqR6dDSmTj9Ufwr-1" edge="1">
          <mxGeometry width="50" height="50" relative="1" as="geometry">
            <mxPoint x="570" y="540" as="sourcePoint" />
            <mxPoint x="620" y="490" as="targetPoint" />
          </mxGeometry>
        </mxCell>
        <mxCell id="Rwy301wZzgn80h3kD4oo-2" value="" style="endArrow=none;html=1;rounded=0;entryX=1;entryY=0.75;entryDx=0;entryDy=0;exitX=0;exitY=0.5;exitDx=0;exitDy=0;labelBackgroundColor=none;strokeColor=#A8201A;fontColor=default;" parent="1" source="rpjM5rqR6dDSmTj9Ufwr-3" target="rpjM5rqR6dDSmTj9Ufwr-1" edge="1">
          <mxGeometry width="50" height="50" relative="1" as="geometry">
            <mxPoint x="570" y="540" as="sourcePoint" />
            <mxPoint x="620" y="490" as="targetPoint" />
          </mxGeometry>
        </mxCell>
        <mxCell id="Rwy301wZzgn80h3kD4oo-3" value="" style="endArrow=none;html=1;rounded=0;entryX=1;entryY=0.5;entryDx=0;entryDy=0;exitX=0;exitY=0.5;exitDx=0;exitDy=0;strokeWidth=2;labelBackgroundColor=none;strokeColor=#A8201A;fontColor=default;" parent="1" source="rpjM5rqR6dDSmTj9Ufwr-5" target="rpjM5rqR6dDSmTj9Ufwr-1" edge="1">
          <mxGeometry width="50" height="50" relative="1" as="geometry">
            <mxPoint x="570" y="540" as="sourcePoint" />
            <mxPoint x="620" y="490" as="targetPoint" />
            <Array as="points">
              <mxPoint x="560" y="660" />
              <mxPoint x="560" y="505" />
            </Array>
          </mxGeometry>
        </mxCell>
        <mxCell id="Rwy301wZzgn80h3kD4oo-4" value="" style="endArrow=none;html=1;rounded=0;entryX=1;entryY=0.5;entryDx=0;entryDy=0;exitX=0;exitY=0.5;exitDx=0;exitDy=0;strokeWidth=2;labelBackgroundColor=none;strokeColor=#A8201A;fontColor=default;" parent="1" source="rpjM5rqR6dDSmTj9Ufwr-4" target="rpjM5rqR6dDSmTj9Ufwr-1" edge="1">
          <mxGeometry width="50" height="50" relative="1" as="geometry">
            <mxPoint x="570" y="420" as="sourcePoint" />
            <mxPoint x="620" y="590" as="targetPoint" />
            <Array as="points">
              <mxPoint x="560" y="360" />
              <mxPoint x="560" y="505" />
            </Array>
          </mxGeometry>
        </mxCell>
        <mxCell id="Rwy301wZzgn80h3kD4oo-5" value="" style="endArrow=none;html=1;rounded=0;entryX=1;entryY=0.5;entryDx=0;entryDy=0;exitX=0;exitY=0.5;exitDx=0;exitDy=0;strokeWidth=2;labelBackgroundColor=none;strokeColor=#A8201A;fontColor=default;" parent="1" source="iSw2Bme7cuxjauIEPzNs-2" target="rpjM5rqR6dDSmTj9Ufwr-4" edge="1">
          <mxGeometry width="50" height="50" relative="1" as="geometry">
            <mxPoint x="690" y="500" as="sourcePoint" />
            <mxPoint x="740" y="450" as="targetPoint" />
          </mxGeometry>
        </mxCell>
        <mxCell id="Rwy301wZzgn80h3kD4oo-6" value="" style="endArrow=none;html=1;rounded=0;entryX=1;entryY=0.5;entryDx=0;entryDy=0;exitX=0;exitY=0.5;exitDx=0;exitDy=0;strokeWidth=2;labelBackgroundColor=none;strokeColor=#A8201A;fontColor=default;" parent="1" source="iSw2Bme7cuxjauIEPzNs-1" target="rpjM5rqR6dDSmTj9Ufwr-4" edge="1">
          <mxGeometry width="50" height="50" relative="1" as="geometry">
            <mxPoint x="690" y="500" as="sourcePoint" />
            <mxPoint x="740" y="450" as="targetPoint" />
            <Array as="points">
              <mxPoint x="880" y="240" />
              <mxPoint x="880" y="360" />
            </Array>
          </mxGeometry>
        </mxCell>
        <mxCell id="Rwy301wZzgn80h3kD4oo-7" value="" style="endArrow=none;html=1;rounded=0;entryX=1;entryY=0.5;entryDx=0;entryDy=0;exitX=0;exitY=0.5;exitDx=0;exitDy=0;strokeWidth=2;labelBackgroundColor=none;strokeColor=#A8201A;fontColor=default;" parent="1" source="Fw-wr2e0vy1Fs69fPaS9-1" target="rpjM5rqR6dDSmTj9Ufwr-4" edge="1">
          <mxGeometry width="50" height="50" relative="1" as="geometry">
            <mxPoint x="690" y="500" as="sourcePoint" />
            <mxPoint x="740" y="450" as="targetPoint" />
            <Array as="points">
              <mxPoint x="880" y="480" />
              <mxPoint x="880" y="360" />
            </Array>
          </mxGeometry>
        </mxCell>
        <mxCell id="Rwy301wZzgn80h3kD4oo-8" value="" style="endArrow=none;html=1;rounded=0;entryX=1;entryY=0.5;entryDx=0;entryDy=0;exitX=0;exitY=0.5;exitDx=0;exitDy=0;labelBackgroundColor=none;strokeColor=#A8201A;fontColor=default;" parent="1" source="Fw-wr2e0vy1Fs69fPaS9-6" target="rpjM5rqR6dDSmTj9Ufwr-5" edge="1">
          <mxGeometry width="50" height="50" relative="1" as="geometry">
            <mxPoint x="690" y="500" as="sourcePoint" />
            <mxPoint x="740" y="450" as="targetPoint" />
          </mxGeometry>
        </mxCell>
        <mxCell id="Rwy301wZzgn80h3kD4oo-9" value="" style="endArrow=none;html=1;rounded=0;entryX=1;entryY=0.25;entryDx=0;entryDy=0;exitX=0;exitY=0.5;exitDx=0;exitDy=0;labelBackgroundColor=none;strokeColor=#A8201A;fontColor=default;" parent="1" source="I4TDb45q7dqxqLJ3P50U-1" target="rpjM5rqR6dDSmTj9Ufwr-5" edge="1">
          <mxGeometry width="50" height="50" relative="1" as="geometry">
            <mxPoint x="690" y="500" as="sourcePoint" />
            <mxPoint x="740" y="450" as="targetPoint" />
          </mxGeometry>
        </mxCell>
        <mxCell id="Rwy301wZzgn80h3kD4oo-10" value="" style="endArrow=none;html=1;rounded=0;entryX=1;entryY=0.75;entryDx=0;entryDy=0;exitX=0;exitY=0.5;exitDx=0;exitDy=0;labelBackgroundColor=none;strokeColor=#A8201A;fontColor=default;" parent="1" source="rpjM5rqR6dDSmTj9Ufwr-2" target="rpjM5rqR6dDSmTj9Ufwr-5" edge="1">
          <mxGeometry width="50" height="50" relative="1" as="geometry">
            <mxPoint x="690" y="500" as="sourcePoint" />
            <mxPoint x="740" y="450" as="targetPoint" />
          </mxGeometry>
        </mxCell>
        <mxCell id="Rwy301wZzgn80h3kD4oo-11" value="" style="endArrow=none;html=1;rounded=0;entryX=1;entryY=0.75;entryDx=0;entryDy=0;exitX=0;exitY=0.5;exitDx=0;exitDy=0;labelBackgroundColor=none;strokeColor=#A8201A;fontColor=default;" parent="1" source="I4TDb45q7dqxqLJ3P50U-14" target="Fw-wr2e0vy1Fs69fPaS9-1" edge="1">
          <mxGeometry width="50" height="50" relative="1" as="geometry">
            <mxPoint x="690" y="500" as="sourcePoint" />
            <mxPoint x="740" y="450" as="targetPoint" />
          </mxGeometry>
        </mxCell>
        <mxCell id="Rwy301wZzgn80h3kD4oo-12" value="" style="endArrow=none;html=1;rounded=0;entryX=1;entryY=0.25;entryDx=0;entryDy=0;exitX=0;exitY=0.5;exitDx=0;exitDy=0;labelBackgroundColor=none;strokeColor=#A8201A;fontColor=default;" parent="1" source="Fw-wr2e0vy1Fs69fPaS9-3" target="Fw-wr2e0vy1Fs69fPaS9-1" edge="1">
          <mxGeometry width="50" height="50" relative="1" as="geometry">
            <mxPoint x="690" y="500" as="sourcePoint" />
            <mxPoint x="740" y="450" as="targetPoint" />
          </mxGeometry>
        </mxCell>
        <mxCell id="LeKPzBnBtyQWNpHF2euY-1" value="&lt;h2&gt;&lt;font style=&quot;font-size: 32px;&quot;&gt;Crane Parameters&lt;/font&gt;&lt;/h2&gt;" style="rounded=0;whiteSpace=wrap;html=1;labelBackgroundColor=none;fillColor=#FAE5C7;strokeColor=#0F8B8D;fontColor=#143642;" vertex="1" parent="1">
          <mxGeometry x="620" y="320" width="220" height="80" as="geometry" />
        </mxCell>
        <mxCell id="LeKPzBnBtyQWNpHF2euY-2" value="&lt;h2&gt;&lt;font style=&quot;font-size: 32px;&quot;&gt;Crane Parameters&lt;/font&gt;&lt;/h2&gt;" style="rounded=0;whiteSpace=wrap;html=1;labelBackgroundColor=none;fillColor=#FAE5C7;strokeColor=#0F8B8D;fontColor=#143642;" vertex="1" parent="1">
          <mxGeometry x="620" y="320" width="220" height="80" as="geometry" />
        </mxCell>
        <mxCell id="LeKPzBnBtyQWNpHF2euY-3" value="&lt;h2&gt;&lt;font style=&quot;font-size: 32px;&quot;&gt;Load and Constraint Parameters&lt;/font&gt;&lt;/h2&gt;" style="rounded=0;whiteSpace=wrap;html=1;labelBackgroundColor=none;fillColor=#FAE5C7;strokeColor=#0F8B8D;fontColor=#143642;" vertex="1" parent="1">
          <mxGeometry x="620" y="600" width="220" height="120" as="geometry" />
        </mxCell>
        <mxCell id="LeKPzBnBtyQWNpHF2euY-4" value="&lt;p style=&quot;font-size: 28px;&quot;&gt;&lt;font style=&quot;font-size: 28px;&quot;&gt;Structure Parameters&lt;/font&gt;&lt;br style=&quot;font-size: 28px;&quot;&gt;&lt;/p&gt;" style="rounded=0;whiteSpace=wrap;html=1;fontFamily=Verdana;fontSize=28;labelBackgroundColor=none;fillColor=#FAE5C7;strokeColor=#0F8B8D;fontColor=#143642;" vertex="1" parent="1">
          <mxGeometry x="920" y="440" width="170" height="80" as="geometry" />
        </mxCell>
        <mxCell id="LeKPzBnBtyQWNpHF2euY-5" value="&lt;p style=&quot;font-size: 28px;&quot;&gt;&lt;font style=&quot;font-size: 28px;&quot;&gt;Integral Parameters&lt;/font&gt;&lt;/p&gt;" style="rounded=0;whiteSpace=wrap;html=1;fontFamily=Verdana;fontSize=28;labelBackgroundColor=none;fillColor=#FAE5C7;strokeColor=#0F8B8D;fontColor=#143642;" vertex="1" parent="1">
          <mxGeometry x="920" y="320" width="170" height="80" as="geometry" />
        </mxCell>
        <mxCell id="LeKPzBnBtyQWNpHF2euY-6" value="&lt;h2&gt;&lt;font style=&quot;font-size: 32px;&quot;&gt;Crane Parameters&lt;/font&gt;&lt;/h2&gt;" style="rounded=0;whiteSpace=wrap;html=1;strokeWidth=2;labelBackgroundColor=none;fillColor=#FAE5C7;strokeColor=#0F8B8D;fontColor=#143642;" vertex="1" parent="1">
          <mxGeometry x="620" y="320" width="220" height="80" as="geometry" />
        </mxCell>
        <mxCell id="LeKPzBnBtyQWNpHF2euY-7" value="&lt;h2&gt;&lt;font style=&quot;font-size: 32px;&quot;&gt;Load and Constraint Parameters&lt;/font&gt;&lt;/h2&gt;" style="rounded=0;whiteSpace=wrap;html=1;strokeWidth=2;labelBackgroundColor=none;fillColor=#FAE5C7;strokeColor=#0F8B8D;fontColor=#143642;" vertex="1" parent="1">
          <mxGeometry x="620" y="600" width="220" height="120" as="geometry" />
        </mxCell>
        <mxCell id="LeKPzBnBtyQWNpHF2euY-8" value="&lt;p style=&quot;font-size: 28px;&quot;&gt;&lt;font style=&quot;font-size: 28px;&quot;&gt;Structure Parameters&lt;/font&gt;&lt;br style=&quot;font-size: 28px;&quot;&gt;&lt;/p&gt;" style="rounded=0;whiteSpace=wrap;html=1;fontFamily=Verdana;fontSize=28;strokeWidth=2;labelBackgroundColor=none;fillColor=#FAE5C7;strokeColor=#0F8B8D;fontColor=#143642;" vertex="1" parent="1">
          <mxGeometry x="920" y="440" width="170" height="80" as="geometry" />
        </mxCell>
        <mxCell id="LeKPzBnBtyQWNpHF2euY-9" value="&lt;p style=&quot;font-size: 28px;&quot;&gt;&lt;font style=&quot;font-size: 28px;&quot;&gt;Integral Parameters&lt;/font&gt;&lt;/p&gt;" style="rounded=0;whiteSpace=wrap;html=1;fontFamily=Verdana;fontSize=28;strokeWidth=2;labelBackgroundColor=none;fillColor=#FAE5C7;strokeColor=#0F8B8D;fontColor=#143642;" vertex="1" parent="1">
          <mxGeometry x="920" y="320" width="170" height="80" as="geometry" />
        </mxCell>
      </root>
    </mxGraphModel>
  </diagram>
  <diagram id="sjnBagZqszC8X07iE8sO" name="第 3 页">
    <mxGraphModel dx="1195" dy="663" grid="1" gridSize="10" guides="1" tooltips="1" connect="1" arrows="1" fold="1" page="1" pageScale="1" pageWidth="1654" pageHeight="2336" math="0" shadow="0">
      <root>
        <mxCell id="0" />
        <mxCell id="1" parent="0" />
        <mxCell id="VN7ZZW3IuAzn4yFGjKDy-7" style="edgeStyle=orthogonalEdgeStyle;rounded=0;orthogonalLoop=1;jettySize=auto;html=1;exitX=0.5;exitY=1;exitDx=0;exitDy=0;entryX=0.5;entryY=0;entryDx=0;entryDy=0;strokeWidth=2;fontSize=30;labelBackgroundColor=none;strokeColor=#A8201A;fontColor=default;" edge="1" parent="1" source="VN7ZZW3IuAzn4yFGjKDy-1" target="VN7ZZW3IuAzn4yFGjKDy-3">
          <mxGeometry relative="1" as="geometry" />
        </mxCell>
        <mxCell id="VN7ZZW3IuAzn4yFGjKDy-1" value="&lt;font style=&quot;font-size: 30px;&quot;&gt;Start&lt;/font&gt;" style="rounded=1;whiteSpace=wrap;html=1;strokeWidth=2;labelBackgroundColor=none;fillColor=#FAE5C7;strokeColor=#0F8B8D;fontColor=#143642;" vertex="1" parent="1">
          <mxGeometry x="640" y="560" width="120" height="60" as="geometry" />
        </mxCell>
        <mxCell id="VN7ZZW3IuAzn4yFGjKDy-2" value="&lt;font style=&quot;font-size: 30px;&quot;&gt;End&lt;/font&gt;" style="rounded=1;whiteSpace=wrap;html=1;strokeWidth=2;labelBackgroundColor=none;fillColor=#FAE5C7;strokeColor=#0F8B8D;fontColor=#143642;" vertex="1" parent="1">
          <mxGeometry x="640" y="1040" width="120" height="60" as="geometry" />
        </mxCell>
        <mxCell id="VN7ZZW3IuAzn4yFGjKDy-8" style="edgeStyle=orthogonalEdgeStyle;rounded=0;orthogonalLoop=1;jettySize=auto;html=1;exitX=0.5;exitY=1;exitDx=0;exitDy=0;entryX=0.5;entryY=0;entryDx=0;entryDy=0;strokeWidth=2;fontSize=30;labelBackgroundColor=none;strokeColor=#A8201A;fontColor=default;" edge="1" parent="1" source="VN7ZZW3IuAzn4yFGjKDy-3" target="VN7ZZW3IuAzn4yFGjKDy-4">
          <mxGeometry relative="1" as="geometry" />
        </mxCell>
        <mxCell id="VN7ZZW3IuAzn4yFGjKDy-3" value="C++ Application Program" style="rounded=0;whiteSpace=wrap;html=1;strokeWidth=2;fontSize=30;labelBackgroundColor=none;fillColor=#FAE5C7;strokeColor=#0F8B8D;fontColor=#143642;" vertex="1" parent="1">
          <mxGeometry x="520" y="680" width="360" height="60" as="geometry" />
        </mxCell>
        <mxCell id="VN7ZZW3IuAzn4yFGjKDy-9" style="edgeStyle=orthogonalEdgeStyle;rounded=0;orthogonalLoop=1;jettySize=auto;html=1;exitX=0.5;exitY=1;exitDx=0;exitDy=0;entryX=0.5;entryY=0;entryDx=0;entryDy=0;strokeWidth=2;fontSize=30;labelBackgroundColor=none;strokeColor=#A8201A;fontColor=default;" edge="1" parent="1" source="VN7ZZW3IuAzn4yFGjKDy-4" target="VN7ZZW3IuAzn4yFGjKDy-6">
          <mxGeometry relative="1" as="geometry" />
        </mxCell>
        <mxCell id="VN7ZZW3IuAzn4yFGjKDy-4" value="&lt;span class=&quot;content-right_8Zs40&quot;&gt;System Folder(datafile)&lt;/span&gt;" style="rounded=0;whiteSpace=wrap;html=1;strokeWidth=2;fontSize=30;labelBackgroundColor=none;fillColor=#FAE5C7;strokeColor=#0F8B8D;fontColor=#143642;" vertex="1" parent="1">
          <mxGeometry x="520" y="800" width="360" height="60" as="geometry" />
        </mxCell>
        <mxCell id="VN7ZZW3IuAzn4yFGjKDy-5" value="Temp Folder" style="rounded=0;whiteSpace=wrap;html=1;strokeWidth=2;fontSize=30;labelBackgroundColor=none;fillColor=#FAE5C7;strokeColor=#0F8B8D;fontColor=#143642;" vertex="1" parent="1">
          <mxGeometry x="1010" y="920" width="190" height="60" as="geometry" />
        </mxCell>
        <mxCell id="VN7ZZW3IuAzn4yFGjKDy-10" style="edgeStyle=orthogonalEdgeStyle;rounded=0;orthogonalLoop=1;jettySize=auto;html=1;exitX=0.5;exitY=1;exitDx=0;exitDy=0;strokeWidth=2;fontSize=30;labelBackgroundColor=none;strokeColor=#A8201A;fontColor=default;" edge="1" parent="1" source="VN7ZZW3IuAzn4yFGjKDy-6" target="VN7ZZW3IuAzn4yFGjKDy-2">
          <mxGeometry relative="1" as="geometry" />
        </mxCell>
        <mxCell id="VN7ZZW3IuAzn4yFGjKDy-6" value="ANSYS" style="rounded=0;whiteSpace=wrap;html=1;strokeWidth=2;fontSize=30;labelBackgroundColor=none;fillColor=#FAE5C7;strokeColor=#0F8B8D;fontColor=#143642;" vertex="1" parent="1">
          <mxGeometry x="630" y="920" width="140" height="60" as="geometry" />
        </mxCell>
        <mxCell id="VN7ZZW3IuAzn4yFGjKDy-11" value="&lt;font style=&quot;font-size: 24px;&quot;&gt;input crane parameters&lt;/font&gt;" style="text;html=1;strokeColor=none;fillColor=none;align=center;verticalAlign=middle;whiteSpace=wrap;rounded=0;fontSize=30;labelBackgroundColor=none;fontColor=#143642;" vertex="1" parent="1">
          <mxGeometry x="700" y="630" width="280" height="30" as="geometry" />
        </mxCell>
        <mxCell id="ELrEc9zrqNUb2yxBqpvB-1" value="&lt;font style=&quot;font-size: 24px;&quot;&gt;crate APDL files&lt;/font&gt;" style="text;html=1;strokeColor=none;fillColor=none;align=center;verticalAlign=middle;whiteSpace=wrap;rounded=0;fontSize=30;labelBackgroundColor=none;fontColor=#143642;" vertex="1" parent="1">
          <mxGeometry x="700" y="750" width="200" height="30" as="geometry" />
        </mxCell>
        <mxCell id="ELrEc9zrqNUb2yxBqpvB-2" value="&lt;font style=&quot;font-size: 24px;&quot;&gt;import APDL files&lt;/font&gt;" style="text;html=1;strokeColor=none;fillColor=none;align=center;verticalAlign=middle;whiteSpace=wrap;rounded=0;fontSize=30;labelBackgroundColor=none;fontColor=#143642;" vertex="1" parent="1">
          <mxGeometry x="700" y="870" width="220" height="30" as="geometry" />
        </mxCell>
        <mxCell id="ELrEc9zrqNUb2yxBqpvB-3" value="&lt;font style=&quot;font-size: 24px;&quot;&gt;export&amp;nbsp;computed results&lt;/font&gt;" style="text;html=1;strokeColor=none;fillColor=none;align=center;verticalAlign=middle;whiteSpace=wrap;rounded=0;fontSize=30;labelBackgroundColor=none;fontColor=#143642;" vertex="1" parent="1">
          <mxGeometry x="320" y="870" width="270" height="30" as="geometry" />
        </mxCell>
        <mxCell id="ELrEc9zrqNUb2yxBqpvB-5" value="&lt;font style=&quot;font-size: 24px;&quot;&gt;export&amp;nbsp;Intermediate files and logs&lt;/font&gt;" style="text;html=1;strokeColor=none;fillColor=none;align=center;verticalAlign=middle;whiteSpace=wrap;rounded=0;fontSize=30;labelBackgroundColor=none;fontColor=#143642;" vertex="1" parent="1">
          <mxGeometry x="780" y="950" width="210" height="70" as="geometry" />
        </mxCell>
        <mxCell id="ELrEc9zrqNUb2yxBqpvB-7" value="" style="endArrow=classic;html=1;rounded=0;strokeWidth=2;fontSize=24;exitX=0;exitY=0.5;exitDx=0;exitDy=0;entryX=0;entryY=0.5;entryDx=0;entryDy=0;labelBackgroundColor=none;strokeColor=#A8201A;fontColor=default;" edge="1" parent="1" source="VN7ZZW3IuAzn4yFGjKDy-6" target="VN7ZZW3IuAzn4yFGjKDy-4">
          <mxGeometry width="50" height="50" relative="1" as="geometry">
            <mxPoint x="770" y="930" as="sourcePoint" />
            <mxPoint x="820" y="880" as="targetPoint" />
            <Array as="points">
              <mxPoint x="320" y="950" />
              <mxPoint x="320" y="830" />
            </Array>
          </mxGeometry>
        </mxCell>
        <mxCell id="ELrEc9zrqNUb2yxBqpvB-8" value="" style="endArrow=classic;html=1;rounded=0;strokeWidth=2;fontSize=24;exitX=1;exitY=0.5;exitDx=0;exitDy=0;entryX=0;entryY=0.5;entryDx=0;entryDy=0;labelBackgroundColor=none;strokeColor=#A8201A;fontColor=default;" edge="1" parent="1" source="VN7ZZW3IuAzn4yFGjKDy-6" target="VN7ZZW3IuAzn4yFGjKDy-5">
          <mxGeometry width="50" height="50" relative="1" as="geometry">
            <mxPoint x="810" y="940" as="sourcePoint" />
            <mxPoint x="860" y="890" as="targetPoint" />
          </mxGeometry>
        </mxCell>
      </root>
    </mxGraphModel>
  </diagram>
  <diagram id="fnR5VIcdnVa6y8BzKtcV" name="第 4 页">
    <mxGraphModel dx="1434" dy="796" grid="1" gridSize="10" guides="1" tooltips="1" connect="1" arrows="1" fold="1" page="1" pageScale="1" pageWidth="1654" pageHeight="2336" math="0" shadow="0">
      <root>
        <mxCell id="0" />
        <mxCell id="1" parent="0" />
      </root>
    </mxGraphModel>
  </diagram>
</mxfile>
